<?xml version="1.0" standalone="no"?>
<!DOCTYPE svg PUBLIC "-//W3C//DTD SVG 20010904//EN"
 "http://www.w3.org/TR/2001/REC-SVG-20010904/DTD/svg10.dtd">
<svg version="1.0" xmlns="http://www.w3.org/2000/svg"
 width="501.000000pt" height="501.000000pt" viewBox="0 0 501.000000 501.000000"
 preserveAspectRatio="xMidYMid meet">
<metadata>
Created by potrace 1.11, written by Peter Selinger 2001-2013
</metadata>
<g transform="translate(0.000000,501.000000) scale(0.100000,-0.100000)"
fill="#000000" stroke="none">
<path d="M2338 5005 c-2 -1 -37 -5 -78 -9 -79 -7 -85 -7 -220 -32 -146 -26
-355 -86 -455 -129 -265 -115 -408 -196 -588 -332 -168 -127 -325 -280 -450
-438 -26 -33 -52 -66 -57 -72 -42 -51 -172 -266 -224 -371 -86 -172 -172 -409
-200 -552 -35 -181 -40 -211 -55 -350 -8 -81 -7 -400 3 -465 3 -22 8 -60 11
-85 34 -257 123 -547 236 -773 193 -383 498 -732 846 -965 127 -85 312 -184
433 -232 58 -23 114 -46 125 -50 11 -5 52 -18 90 -30 39 -11 84 -25 100 -30
38 -12 206 -47 265 -55 25 -4 56 -8 70 -10 149 -23 504 -23 630 0 8 1 36 5 61
9 62 9 96 15 149 27 25 6 54 13 66 15 11 2 67 18 124 34 287 86 565 228 814
418 156 119 380 349 488 502 10 14 31 44 48 68 166 233 320 589 376 867 2 11
6 31 9 45 32 151 48 312 49 500 0 63 -3 156 -7 205 -7 79 -12 121 -33 250 -19
119 -80 327 -139 475 -69 172 -242 483 -307 552 -7 7 -32 38 -54 68 -90 120
-241 273 -385 389 -356 289 -783 475 -1229 535 -19 3 -57 8 -85 12 -48 6 -421
14 -427 9z m-1371 -2210 c0 -41 -3 -76 -6 -76 -3 -1 -19 -3 -36 -4 -16 -2 -33
-3 -36 -4 -3 -1 -6 -93 -6 -206 0 -227 -5 -211 63 -206 20 2 21 -3 22 -73 0
-42 -2 -77 -6 -77 -4 -1 -87 -2 -184 -3 -153 -1 -178 1 -179 14 -1 18 -1 121
0 133 1 4 17 7 37 5 19 -1 38 3 42 9 8 13 7 375 -1 396 -4 11 -17 15 -41 13
-39 -3 -38 -5 -38 79 0 83 -20 75 186 75 l184 0 -1 -75z m691 -2 l-3 -78 -30
0 c-16 0 -35 -3 -40 -7 -7 -4 -10 -105 -10 -285 l0 -278 -210 0 c-115 0 -215
4 -221 8 -22 13 33 171 66 192 6 4 25 -3 44 -14 18 -12 53 -24 77 -27 l44 -6
0 206 c0 223 4 208 -55 210 -24 1 -25 4 -28 79 l-3 77 186 0 186 0 -3 -77z
m802 64 c0 -33 -29 -116 -53 -155 l-28 -43 -27 19 c-15 11 -43 23 -62 28 -53
12 -159 12 -163 0 -3 -10 -2 -68 2 -102 1 -7 22 -11 56 -9 l55 2 0 -78 0 -78
-57 -3 -57 -3 -1 -67 c-2 -75 -7 -70 74 -70 66 0 112 11 145 35 l29 21 27 -33
c27 -32 48 -85 55 -144 l4 -32 -302 0 -302 0 -3 78 c-3 70 -1 78 15 77 66 -7
62 -22 60 208 l-2 207 -35 0 -35 0 -3 78 -3 77 306 0 c241 0 305 -3 305 -13z
m620 3 c120 -33 188 -186 132 -295 -45 -88 -116 -125 -237 -125 l-73 0 0 -70
c0 -75 1 -77 61 -71 18 2 19 -3 19 -74 0 -90 19 -81 -174 -80 l-173 0 -5 45
c-3 25 -3 60 -1 78 3 30 6 32 40 32 l37 0 -1 203 c0 202 -3 222 -35 212 -8 -2
-21 -1 -29 4 -13 8 -15 27 -12 126 l1 25 208 0 c114 0 223 -4 242 -10z m647
-42 c17 -29 41 -71 53 -93 48 -89 125 -215 130 -215 4 0 60 95 181 309 l26 46
146 3 147 3 0 -75 c0 -80 -3 -84 -56 -82 l-31 1 0 -210 0 -210 44 2 43 2 0
-74 c0 -49 -4 -74 -12 -77 -11 -4 -215 -3 -259 1 -15 1 -16 22 -15 182 0 99
-2 183 -5 184 -3 2 -25 -31 -50 -73 -24 -42 -48 -85 -54 -94 -5 -9 -20 -35
-32 -57 -42 -76 -74 -122 -81 -117 -4 2 -18 24 -30 48 -13 24 -27 50 -32 58
-5 8 -39 66 -75 128 -37 61 -68 112 -71 112 -2 0 -4 -57 -3 -127 0 -71 0 -155
0 -188 l-1 -60 -137 1 c-76 1 -140 2 -143 3 -5 1 -5 119 -1 143 0 4 17 7 36 6
19 -1 38 1 41 5 10 10 10 398 -1 406 -5 5 -25 7 -42 5 -18 -1 -34 1 -34 4 -4
20 -5 138 -2 145 2 4 68 7 146 7 l142 0 32 -52z"/>
<path d="M2902 2655 l0 -61 62 1 c75 1 103 10 111 36 7 20 -11 78 -24 80 -3 1
-38 2 -77 3 l-72 2 0 -61z"/>
</g>
</svg>
